{
    "asset" : {
        "generator" : "Khronos glTF Blender I/O v1.6.16",
        "version" : "2.0"
    },
    "scene" : 0,
    "scenes" : [
        {
            "name" : "Scene",
            "nodes" : [
                0,
                1
            ]
        }
    ],
    "nodes" : [
        {
            "mesh" : 0,
            "name" : "Cube.005",
            "scale" : [
                0.10000000149011612,
                0.10000000149011612,
                0.10000000149011612
            ],
            "translation" : [
                0,
                0.010676736012101173,
                0
            ]
        },
        {
            "mesh" : 1,
            "name" : "Cube",
            "scale" : [
                0.10000000149011612,
                0.10000000149011612,
                0.10000000149011612
            ]
        }
    ],
    "materials" : [
        {
            "doubleSided" : true,
            "name" : "AfiladorCuchillaTornillo",
            "pbrMetallicRoughness" : {
                "baseColorFactor" : [
                    0.563536524772644,
                    0.563536524772644,
                    0.563536524772644,
                    1
                ],
                "metallicFactor" : 0.903030276298523,
                "roughnessFactor" : 0.4515151381492615
            }
        },
        {
            "doubleSided" : true,
            "name" : "AfiladorMetal",
            "pbrMetallicRoughness" : {
                "baseColorFactor" : [
                    0.7116808891296387,
                    0.00031027558725327253,
                    0,
                    1
                ],
                "metallicFactor" : 0.3272727131843567,
                "roughnessFactor" : 0.9181817770004272
            }
        },
        {
            "doubleSided" : true,
            "name" : "AfiladorMetalNormal",
            "pbrMetallicRoughness" : {
                "baseColorFactor" : [
                    0.800000011920929,
                    0.800000011920929,
                    0.800000011920929,
                    1
                ],
                "metallicFactor" : 0,
                "roughnessFactor" : 0.5
            }
        }
    ],
    "meshes" : [
        {
            "name" : "Cube.005",
            "primitives" : [
                {
                    "attributes" : {
                        "POSITION" : 0,
                        "NORMAL" : 1,
                        "TEXCOORD_0" : 2
                    },
                    "indices" : 3,
                    "material" : 0
                }
            ]
        },
        {
            "name" : "Cube.001",
            "primitives" : [
                {
                    "attributes" : {
                        "POSITION" : 4,
                        "NORMAL" : 5,
                        "TEXCOORD_0" : 6
                    },
                    "indices" : 7,
                    "material" : 1
                },
                {
                    "attributes" : {
                        "POSITION" : 8,
                        "NORMAL" : 9,
                        "TEXCOORD_0" : 10
                    },
                    "indices" : 11,
                    "material" : 2
                }
            ]
        }
    ],
    "accessors" : [
        {
            "bufferView" : 0,
            "componentType" : 5126,
            "count" : 230,
            "max" : [
                0.34801173210144043,
                0.3606012165546417,
                1.1840325593948364
            ],
            "min" : [
                -0.3467789590358734,
                -0.34353116154670715,
                -1.1847842931747437
            ],
            "type" : "VEC3"
        },
        {
            "bufferView" : 1,
            "componentType" : 5126,
            "count" : 230,
            "type" : "VEC3"
        },
        {
            "bufferView" : 2,
            "componentType" : 5126,
            "count" : 230,
            "type" : "VEC2"
        },
        {
            "bufferView" : 3,
            "componentType" : 5123,
            "count" : 1038,
            "type" : "SCALAR"
        },
        {
            "bufferView" : 4,
            "componentType" : 5126,
            "count" : 650,
            "max" : [
                0.7973633408546448,
                0.5,
                1.2499998807907104
            ],
            "min" : [
                -0.7973633408546448,
                -0.5,
                -1.2499998807907104
            ],
            "type" : "VEC3"
        },
        {
            "bufferView" : 5,
            "componentType" : 5126,
            "count" : 650,
            "type" : "VEC3"
        },
        {
            "bufferView" : 6,
            "componentType" : 5126,
            "count" : 650,
            "type" : "VEC2"
        },
        {
            "bufferView" : 7,
            "componentType" : 5123,
            "count" : 1413,
            "type" : "SCALAR"
        },
        {
            "bufferView" : 8,
            "componentType" : 5126,
            "count" : 220,
            "max" : [
                0.79736328125,
                -0.4999999403953552,
                1.2473628520965576
            ],
            "min" : [
                -0.79736328125,
                -0.5,
                -1.247363567352295
            ],
            "type" : "VEC3"
        },
        {
            "bufferView" : 9,
            "componentType" : 5126,
            "count" : 220,
            "type" : "VEC3"
        },
        {
            "bufferView" : 10,
            "componentType" : 5126,
            "count" : 220,
            "type" : "VEC2"
        },
        {
            "bufferView" : 11,
            "componentType" : 5123,
            "count" : 294,
            "type" : "SCALAR"
        }
    ],
    "bufferViews" : [
        {
            "buffer" : 0,
            "byteLength" : 2760,
            "byteOffset" : 0
        },
        {
            "buffer" : 0,
            "byteLength" : 2760,
            "byteOffset" : 2760
        },
        {
            "buffer" : 0,
            "byteLength" : 1840,
            "byteOffset" : 5520
        },
        {
            "buffer" : 0,
            "byteLength" : 2076,
            "byteOffset" : 7360
        },
        {
            "buffer" : 0,
            "byteLength" : 7800,
            "byteOffset" : 9436
        },
        {
            "buffer" : 0,
            "byteLength" : 7800,
            "byteOffset" : 17236
        },
        {
            "buffer" : 0,
            "byteLength" : 5200,
            "byteOffset" : 25036
        },
        {
            "buffer" : 0,
            "byteLength" : 2826,
            "byteOffset" : 30236
        },
        {
            "buffer" : 0,
            "byteLength" : 2640,
            "byteOffset" : 33064
        },
        {
            "buffer" : 0,
            "byteLength" : 2640,
            "byteOffset" : 35704
        },
        {
            "buffer" : 0,
            "byteLength" : 1760,
            "byteOffset" : 38344
        },
        {
            "buffer" : 0,
            "byteLength" : 588,
            "byteOffset" : 40104
        }
    ],
    "buffers" : [
        {
            "byteLength" : 40692,
            "uri" : "data:application/octet-stream;base64,"
        }
    ]
}
