<?xml version="1.0" encoding="iso-8859-1"?>
<!-- Generator: Adobe Illustrator 19.0.0, SVG Export Plug-In . SVG Version: 6.00 Build 0)  -->
<svg version="1.1" id="Layer_1" xmlns="http://www.w3.org/2000/svg" xmlns:xlink="http://www.w3.org/1999/xlink" x="0px" y="0px"
	 viewBox="0 0 511.998 511.998" style="enable-background:new 0 0 511.998 511.998;" xml:space="preserve">
<g>
	<g>
		<g>
			<path d="M191.999,136.531h-4.267c-31.104,0-55.467,35.61-55.467,81.067s24.363,81.067,55.467,81.067l4.787-0.017
				c9.156-0.555,17.724-3.046,25.079-7.159V450.6c0,5.043,2.159,9.941,5.905,13.449c3.661,3.405,8.474,5.282,13.551,5.282h6.144
				v34.133c0,4.71,3.814,8.533,8.533,8.533s8.533-3.823,8.533-8.533v-34.133h6.144c5.077,0,9.89-1.877,13.551-5.282
				c3.746-3.507,5.905-8.405,5.905-13.449V324.264c0-48.828,0-109.594-36.89-153.754
				C236.253,155.296,216.071,137.043,191.999,136.531z M191.999,238.931c0,4.71-3.814,8.533-8.533,8.533s-8.533-3.823-8.533-8.533
				v-34.133c0-4.71,3.814-8.533,8.533-8.533s8.533,3.823,8.533,8.533V238.931z"/>
			<path d="M379.732,76.795c0-63.437-41.156-76.757-75.358-76.757h-0.026c-1.544-0.06-37.982-1.331-65.792,17.604
				c-9.02,5.555-29.491,19.652-29.491,33.161v51.994c0,13.594,20.753,27.793,29.312,33.033
				c24.166,16.546,54.946,17.775,63.411,17.775c1.289,0,2.048-0.026,2.21-0.034c2.458,0,4.958-0.094,7.467-0.239v160.734
				c0,5.043,2.159,9.95,5.905,13.457c3.661,3.405,8.474,5.274,13.551,5.274h6.144v170.667c0,4.719,3.814,8.533,8.533,8.533
				c4.719,0,8.533-3.814,8.533-8.533V332.795h6.144c5.077,0,9.89-1.869,13.551-5.274c3.746-3.507,5.905-8.414,5.905-13.457V85.328
				c0-0.512-0.205-0.964-0.29-1.459C379.562,81.54,379.732,79.278,379.732,76.795z M311.466,85.328
				c-4.719,0-8.533-3.814-8.533-8.533c0-4.71,3.814-8.533,8.533-8.533h25.6c4.719,0,8.533,3.823,8.533,8.533
				c0,4.719-3.814,8.533-8.533,8.533H311.466z M362.666,314.064c0,0.333-0.179,0.683-0.495,0.973
				c-0.461,0.444-1.161,0.691-1.894,0.691h-29.355c-0.734,0-1.434-0.247-1.894-0.691c-0.316-0.29-0.495-0.64-0.495-0.973V150.899
				c3.26-0.751,6.468-1.698,9.6-2.867c0.623-0.222,1.195-0.486,1.801-0.725c1.886-0.759,3.729-1.596,5.547-2.526
				c1.229-0.623,2.458-1.237,3.618-1.911c0.119-0.077,0.239-0.162,0.358-0.239c4.975-2.953,9.438-6.409,13.21-10.53V314.064z"/>
		</g>
	</g>
</g>
<g>
</g>
<g>
</g>
<g>
</g>
<g>
</g>
<g>
</g>
<g>
</g>
<g>
</g>
<g>
</g>
<g>
</g>
<g>
</g>
<g>
</g>
<g>
</g>
<g>
</g>
<g>
</g>
<g>
</g>
</svg>
